# xmcd
# 
# Track frame offsets:
#     182
#     23732
#     46382
#     71257
#     86932
#     105107
#     123857
#     137457
#     157895
#     173232
#     196607
#     224607
#     238757
#     253632
#     267345
#     280832
#     294232
#     307795
#     324732
#     338332
# 
# Disc length: 4715
# 
# Revision: 1
# Processed by: cddbd v1.5.2PL0 Copyright (c) Steve Scherf et al.
# Submitted via: BonkEnc v1.0.0
# 
DISCID=0c126914
DTITLE=Various Artist - 20 tops salsa
DYEAR=0
DGENRE=Salsa
TTITLE0=Pepe Conde - catalina la o
TTITLE1=Ray Barreto - tres dias de carneval
TTITLE2=Fania all stars - bamboleo
TTITLE3=Celia Cruz - arrecotin arrectan
TTITLE4=Tito Puente - para los rumberos
TTITLE5=20 tops salsa - dos jueyes
TTITLE6=20 tops salsa - la banda
TTITLE7=Tito Puente - oye como va
TTITLE8=Tito Puente - la mucura
TTITLE9=20 tops salsa - por culpa de tu amor
TTITLE10=20 tops salsa - soy antillana
TTITLE11=20 tops salsa - moliendo cafe
TTITLE12=20 tops salsa - toro mata
TTITLE13=Tito Puente - salsarengue
TTITLE14=20 tops salsa - el petiso
TTITLE15=Tito Puente - bombata
TTITLE16=20 tops salsa - oyela
TTITLE17=Tito Puente - esto es coco
TTITLE18=20 tops salsa - sin poderte hablar
TTITLE19=20 tops salsa - un amor de la calle
EXTD=
EXTT0=
EXTT1=
EXTT2=
EXTT3=
EXTT4=
EXTT5=
EXTT6=
EXTT7=
EXTT8=
EXTT9=
EXTT10=
EXTT11=
EXTT12=
EXTT13=
EXTT14=
EXTT15=
EXTT16=
EXTT17=
EXTT18=
EXTT19=
PLAYORDER=
